<svg width="66" height="66" viewBox="0 0 66 66" fill="none" xmlns="http://www.w3.org/2000/svg">
<path d="M3.67962 12.5426L13.5151 2.70711C13.9056 2.31658 14.5388 2.31658 14.9293 2.70711L27.7373 15.5151C28.1279 15.9056 28.1279 16.5388 27.7373 16.9293L21.843 22.8237C21.5386 23.128 21.4632 23.593 21.6557 23.978L25.0158 30.6983C27.2414 35.1494 30.8506 38.7586 35.3017 40.9842L42.022 44.3443C42.407 44.5368 42.872 44.4614 43.1763 44.157L49.0707 38.2627C49.4612 37.8721 50.0944 37.8721 50.4849 38.2627L63.2929 51.0707C63.6834 51.4612 63.6834 52.0944 63.2929 52.4849L53.4574 62.3204C51.3461 64.4317 48.0035 64.6693 45.6148 62.8777L23.9619 46.6381C22.2184 45.3304 20.6696 43.7816 19.3619 42.0381L3.12226 20.3852C1.33072 17.9965 1.56827 14.654 3.67962 12.5426Z" stroke="#DBAE8B" stroke-width="3"/>
</svg>
