<svg width="75" height="75" viewBox="0 0 75 75" fill="none" xmlns="http://www.w3.org/2000/svg">
<path d="M7.8125 11.0125C7.8125 9.8924 7.8125 9.33234 8.03049 8.90452C8.22223 8.52819 8.52819 8.22223 8.90452 8.03049C9.33234 7.8125 9.8924 7.8125 11.0125 7.8125H63.9875C65.1076 7.8125 65.6677 7.8125 66.0955 8.03049C66.4718 8.22223 66.7778 8.52819 66.9695 8.90452C67.1875 9.33234 67.1875 9.8924 67.1875 11.0125V63.9875C67.1875 65.1076 67.1875 65.6677 66.9695 66.0955C66.7778 66.4718 66.4718 66.7778 66.0955 66.9695C65.6677 67.1875 65.1076 67.1875 63.9875 67.1875H11.0125C9.8924 67.1875 9.33234 67.1875 8.90452 66.9695C8.52819 66.7778 8.22223 66.4718 8.03049 66.0955C7.8125 65.6677 7.8125 65.1076 7.8125 63.9875V11.0125Z" stroke="#DBAE8B" stroke-width="3" stroke-linecap="round"/>
<path d="M39.0625 46.9669C39.0625 54.5652 30.577 59.6169 28.5541 60.7132C28.2831 60.8601 27.9669 60.8601 27.6959 60.7132C25.673 59.6169 17.1875 54.5652 17.1875 46.9669C17.1875 40.3493 22.4871 35.9375 28.125 35.9375C33.9583 35.9375 39.0625 40.3493 39.0625 46.9669Z" stroke="#DBAE8B"/>
<path d="M57.8125 67.1875L39.0625 20.3125" stroke="#DBAE8B"/>
<path d="M67.1875 14.0625L7.8125 26.5625" stroke="#DBAE8B"/>
<circle cx="28.125" cy="46.875" r="3.125" fill="#DBAE8B"/>
</svg>
