<svg width="42" height="38" viewBox="0 0 42 38" fill="none" xmlns="http://www.w3.org/2000/svg">
<path d="M28.2387 8.82609C28.2387 12.5482 25.0466 15.6522 20.9992 15.6522C16.9519 15.6522 13.7598 12.5482 13.7598 8.82609C13.7598 5.10402 16.9519 2 20.9992 2C25.0466 2 28.2387 5.10402 28.2387 8.82609Z" stroke="#1A120B" stroke-width="2" stroke-linecap="round"/>
<path d="M25.7188 4.13054C26.3008 3.12518 26.7701 2.90148 27.814 2.38803C28.858 1.87458 30.0312 1.68141 31.1852 1.83293C32.3393 1.98446 33.4224 2.47388 34.2975 3.23931C35.1727 4.00474 35.8006 5.0118 36.1018 6.13313C36.4031 7.25446 36.3642 8.43971 35.9901 9.539C35.6159 10.6383 34.9233 11.6022 33.9998 12.3089C33.0763 13.0156 31.9635 13.4334 30.802 13.5093C29.6405 13.5852 28.4824 13.3159 27.4744 12.7355" stroke="#1A120B" stroke-width="2"/>
<path d="M15.9102 4.13054C15.3282 3.12518 15.2313 2.90148 14.1873 2.38803C13.1433 1.87458 11.9701 1.68141 10.8161 1.83293C9.66204 1.98446 8.57896 2.47388 7.70381 3.23931C6.82867 4.00474 6.20076 5.0118 5.89949 6.13313C5.59822 7.25446 5.63713 8.43971 6.01129 9.539C6.38544 10.6383 7.07805 11.6022 8.00152 12.3089C8.92499 13.0156 10.0378 13.4334 11.1994 13.5093C12.3609 13.5852 13.5189 13.3159 14.527 12.7355" stroke="#1A120B" stroke-width="2"/>
<path d="M20.9996 21.3477C33.285 21.3477 35.1737 32.5574 35.464 36.0039C35.5103 36.5542 35.069 36.9998 34.5167 36.9998H7.48242C6.93014 36.9998 6.4888 36.5542 6.53516 36.0039C6.82549 32.5574 8.71411 21.3477 20.9996 21.3477Z" stroke="#1A120B" stroke-width="2" stroke-linecap="round"/>
<path d="M40.9502 30.5643L41.9352 30.3921V30.3921L40.9502 30.5643ZM23.9141 21.1842L23.1765 20.5089L21.9311 21.8692L23.7506 22.1707L23.9141 21.1842ZM34.8926 31.6515L33.9322 31.9301L34.1415 32.6515H34.8926V31.6515ZM30.384 19.2803C33.7788 19.2803 36.0052 21.2455 37.5037 23.7418C39.0144 26.2586 39.6944 29.1879 39.9651 30.7365L41.9352 30.3921C41.6488 28.7537 40.9163 25.5409 39.2184 22.7125C37.5084 19.8636 34.7302 17.2803 30.384 17.2803V19.2803ZM24.6516 21.8594C26.0459 20.3365 27.8867 19.2803 30.384 19.2803V17.2803C27.2329 17.2803 24.8821 18.6459 23.1765 20.5089L24.6516 21.8594ZM23.7506 22.1707C30.1076 23.2242 32.7842 27.9728 33.9322 31.9301L35.853 31.3729C34.6059 27.0739 31.5314 21.4329 24.0776 20.1976L23.7506 22.1707ZM40.0043 30.6515H34.8926V32.6515H40.0043V30.6515ZM39.9651 30.7365C39.9642 30.7312 39.9635 30.7174 39.9685 30.7003C39.9731 30.6845 39.9804 30.6729 39.987 30.6655C40.0003 30.6503 40.0111 30.6515 40.0043 30.6515V32.6515C41.1685 32.6515 42.1523 31.6339 41.9352 30.3921L39.9651 30.7365Z" fill="#1A120B"/>
<path d="M18.0856 21.1842L18.2491 22.1707L20.0685 21.8692L18.8232 20.5089L18.0856 21.1842ZM1.04945 30.5643L0.064388 30.3921L1.04945 30.5643ZM7.10726 31.6515V32.6515H7.8584L8.06767 31.9301L7.10726 31.6515ZM11.6157 19.2803C14.113 19.2803 15.9538 20.3365 17.348 21.8594L18.8232 20.5089C17.1176 18.6459 14.7669 17.2803 11.6157 17.2803V19.2803ZM2.03452 30.7365C2.30521 29.1879 2.98523 26.2586 4.496 23.7418C5.99449 21.2455 8.22091 19.2803 11.6157 19.2803V17.2803C7.26947 17.2803 4.49133 19.8636 2.78122 22.7125C1.08339 25.5409 0.350794 28.7536 0.064388 30.3921L2.03452 30.7365ZM1.99528 30.6515C1.98853 30.6515 1.9993 30.6503 2.01265 30.6655C2.01919 30.6729 2.0265 30.6845 2.0311 30.7003C2.03608 30.7174 2.03545 30.7312 2.03452 30.7365L0.064388 30.3921C-0.152676 31.6339 0.831104 32.6515 1.99528 32.6515V30.6515ZM7.10726 30.6515H1.99528V32.6515H7.10726V30.6515ZM8.06767 31.9301C9.21561 27.9728 11.8922 23.2243 18.2491 22.1707L17.9221 20.1977C10.4685 21.433 7.3939 27.074 6.14685 31.3729L8.06767 31.9301Z" fill="#1A120B"/>
</svg>
