<svg width="29" height="29" viewBox="0 0 29 29" fill="none" xmlns="http://www.w3.org/2000/svg">
<path d="M11.7834 0.000796572C5.20383 0.0725326 -0.0710129 5.46618 0.000723097 12.0457C0.0724591 18.623 5.46611 23.9001 12.0456 23.8261C14.4757 23.8015 16.8385 23.0303 18.8202 21.6225L25.6239 28.4262C26.4041 29.1951 27.6594 29.1861 28.4284 28.406C29.1905 27.6348 29.1905 26.3929 28.4284 25.6218L21.6246 18.818C25.4379 13.4558 24.1825 6.01765 18.8202 2.20444C16.7668 0.742816 14.3031 -0.028346 11.7834 0.000796572ZM11.6399 2.06096C17.0739 1.91077 21.6022 6.19027 21.7547 11.6265C21.7569 11.7207 21.7591 11.8171 21.7591 11.9112C21.7614 17.3475 17.3541 21.757 11.9201 21.7592C6.48386 21.7615 2.07434 17.3564 2.0721 11.9202C2.0721 11.9179 2.0721 11.9157 2.0721 11.9135C2.06762 6.58033 6.30901 2.21116 11.6399 2.06096Z" fill="#1A120B" fill-opacity="0.68"/>
</svg>
